<?xml version="1.0" encoding="UTF-8"?>
<svg version="1.1" xmlns="http://www.w3.org/2000/svg" width="1024" height="1536">
<path d="M0 0 C337.92 0 675.84 0 1024 0 C1024 506.88 1024 1013.76 1024 1536 C686.08 1536 348.16 1536 0 1536 C0 1029.12 0 522.24 0 0 Z " fill="#FAF9FA" transform="translate(0,0)"/>
<path d="M0 0 C1.01291107 0.00182281 2.02582214 0.00364563 3.06942749 0.00552368 C17.68262234 0.04978206 31.86753418 0.54862913 46.25 3.3125 C48.2381047 3.65726963 50.22639525 4.00096877 52.21484375 4.34375 C97.71834831 12.51879914 139.54284828 30.94618761 177.49414062 57.10351562 C178.67179009 57.91437772 179.85283943 58.72032252 181.03710938 59.52148438 C190.20548989 65.73038765 198.33564084 72.57857828 206.25 80.3125 C207.32701172 81.35881592 207.32701172 81.35881592 208.42578125 82.42626953 C217.20586181 90.98315897 225.87523773 99.48798971 233.25 109.3125 C234.01425293 110.31071777 234.01425293 110.31071777 234.79394531 111.32910156 C263.18921643 148.46137917 287.56767627 195.09765894 292.67578125 242.2421875 C293.31780227 245.67503459 293.81796338 246.47142945 296.5625 248.5 C314.56089605 263.00138149 326.31855595 281.1918696 337.25 301.3125 C337.69617676 302.12122559 338.14235352 302.92995117 338.60205078 303.76318359 C361.25 344.8575028 361.25 344.8575028 361.25 360.3125 C361.78625 360.26609375 362.3225 360.2196875 362.875 360.171875 C395.68754708 358.66077086 432.79621934 382.15379439 456.25 403.3125 C457.02601563 404.00472656 457.80203125 404.69695312 458.6015625 405.41015625 C470.58979336 416.72268683 479.81177964 430.70064528 487.25 445.3125 C487.71696289 446.21186279 487.71696289 446.21186279 488.19335938 447.12939453 C507.91784887 485.4743909 509.74388778 527.93214342 497.0625 568.6875 C492.03454187 583.15633364 485.16136397 596.85275285 476.25 609.3125 C475.85651367 609.86679688 475.46302734 610.42109375 475.05761719 610.9921875 C463.95429118 626.40016028 450.33714498 640.1683492 434.25 650.3125 C433.6115918 650.7254834 432.97318359 651.1384668 432.31542969 651.56396484 C410.70466182 665.44460617 383.8988459 675.50443604 357.98033047 675.44392776 C356.74855874 675.44700672 356.74855874 675.44700672 355.49190274 675.45014787 C352.73436844 675.45581185 349.97688418 675.45436134 347.21934509 675.45294189 C345.22447975 675.45552591 343.22961492 675.45853917 341.23475081 675.4619453 C335.74768234 675.47001491 330.26062695 675.47180486 324.77355325 675.47254276 C318.8570428 675.47439349 312.94053913 675.48194114 307.02403259 675.48867798 C293.40615112 675.50297229 279.78827065 675.50878898 266.17038323 675.51336992 C259.43506998 675.51570751 252.69975759 675.51931044 245.964445 675.5230653 C222.89152207 675.53590296 199.81859961 675.54661979 176.74567318 675.5500679 C175.29742516 675.55028953 173.84917714 675.55051132 172.40092913 675.55073325 C170.94924077 675.55095389 169.49755241 675.55117437 168.04586405 675.5513947 C165.13368475 675.55183724 162.22150546 675.55228436 159.30932617 675.55273438 C158.58727588 675.55284377 157.86522559 675.55295316 157.12129499 675.55306586 C133.73628495 675.55669227 110.35130599 675.57259545 86.96630785 675.59592474 C62.22148772 675.62056525 37.47668534 675.63424279 12.73185259 675.63543582 C10.01098382 675.63560726 7.29011506 675.63582268 4.56924629 675.63607025 C3.56437192 675.6361539 3.56437192 675.6361539 2.53919706 675.63623925 C-7.54316216 675.63731546 -17.62549247 675.64659462 -27.70784187 675.66025543 C-39.19259911 675.67570006 -50.67730313 675.68075138 -62.16206879 675.67251733 C-68.01574742 675.66862565 -73.86931903 675.66946745 -79.72298431 675.68357468 C-85.09568369 675.69640352 -90.46819662 675.69503805 -95.84089606 675.68298396 C-97.77109283 675.68104235 -99.70130323 675.68403314 -101.63148094 675.69282833 C-140.09186815 675.85679739 -177.29823953 665.45715722 -207.75 641.3125 C-208.32556641 640.85649414 -208.90113281 640.40048828 -209.49414062 639.93066406 C-228.63967066 624.553025 -243.23124006 605.94773607 -254.75 584.3125 C-255.63945312 582.6728125 -255.63945312 582.6728125 -256.546875 581 C-265.60564838 563.68411461 -270.79451979 545.39076361 -274.75 526.3125 C-275.04583984 524.92949707 -275.04583984 524.92949707 -275.34765625 523.51855469 C-277.07961703 514.51545144 -277.14786705 505.57219435 -277.125 496.4375 C-277.12445618 495.62024445 -277.12391235 494.80298889 -277.12335205 493.96096802 C-277.06483757 474.80356002 -273.86474886 457.63294916 -268.01953125 439.40234375 C-267.68501953 438.32073975 -267.68501953 438.32073975 -267.34375 437.21728516 C-266.87285832 435.70663676 -266.37308345 434.2049963 -265.86328125 432.70703125 C-265.68818859 429.00593473 -267.44427211 426.24737828 -269.125 423.0625 C-281.80496834 397.54177172 -289.44887884 369.29534271 -294.22998047 341.30517578 C-294.69279367 338.64171842 -295.2004126 335.99210698 -295.72265625 333.33984375 C-300.43073897 307.72356981 -298.86249317 279.87377219 -294.75 254.3125 C-294.46837347 252.40630559 -294.18712446 250.50005537 -293.90625 248.59375 C-286.68931956 201.82133848 -268.00862359 157.23547271 -239.75 119.3125 C-239.25081055 118.6421875 -238.75162109 117.971875 -238.23730469 117.28125 C-231.89577206 108.84316432 -225.09594179 100.89816516 -217.75 93.3125 C-216.51032471 92.03197754 -216.51032471 92.03197754 -215.24560547 90.72558594 C-204.32820995 79.48785495 -193.48346879 68.51345809 -180.75 59.3125 C-179.82316406 58.590625 -178.89632812 57.86875 -177.94140625 57.125 C-137.79677491 25.94470382 -91.95685267 8.71368615 -41.75 2.3125 C-41.07233582 2.22422943 -40.39467163 2.13595886 -39.69647217 2.04501343 C-26.45146122 0.35604609 -13.34331712 -0.05001808 0 0 Z " fill="#E6D6BA" transform="translate(468.75,423.6875)"/>
<path d="M0 0 C1.01291107 0.00182281 2.02582214 0.00364563 3.06942749 0.00552368 C17.68262234 0.04978206 31.86753418 0.54862913 46.25 3.3125 C48.2381047 3.65726963 50.22639525 4.00096877 52.21484375 4.34375 C97.71834831 12.51879914 139.54284828 30.94618761 177.49414062 57.10351562 C178.67179009 57.91437772 179.85283943 58.72032252 181.03710938 59.52148438 C190.20548989 65.73038765 198.33564084 72.57857828 206.25 80.3125 C207.32701172 81.35881592 207.32701172 81.35881592 208.42578125 82.42626953 C217.20586181 90.98315897 225.87523773 99.48798971 233.25 109.3125 C234.01425293 110.31071777 234.01425293 110.31071777 234.79394531 111.32910156 C263.18921643 148.46137917 287.56767627 195.09765894 292.67578125 242.2421875 C293.31780227 245.67503459 293.81796338 246.47142945 296.5625 248.5 C314.56089605 263.00138149 326.31855595 281.1918696 337.25 301.3125 C337.69617676 302.12122559 338.14235352 302.92995117 338.60205078 303.76318359 C361.25 344.8575028 361.25 344.8575028 361.25 360.3125 C361.78625 360.26609375 362.3225 360.2196875 362.875 360.171875 C395.68754708 358.66077086 432.79621934 382.15379439 456.25 403.3125 C457.02601563 404.00472656 457.80203125 404.69695312 458.6015625 405.41015625 C470.58979336 416.72268683 479.81177964 430.70064528 487.25 445.3125 C487.71696289 446.21186279 487.71696289 446.21186279 488.19335938 447.12939453 C507.91784887 485.4743909 509.74388778 527.93214342 497.0625 568.6875 C492.03454187 583.15633364 485.16136397 596.85275285 476.25 609.3125 C475.85651367 609.86679688 475.46302734 610.42109375 475.05761719 610.9921875 C463.95429118 626.40016028 450.33714498 640.1683492 434.25 650.3125 C433.6115918 650.7254834 432.97318359 651.1384668 432.31542969 651.56396484 C410.70466182 665.44460617 383.8988459 675.50443604 357.98033047 675.44392776 C356.74855874 675.44700672 356.74855874 675.44700672 355.49190274 675.45014787 C352.73436844 675.45581185 349.97688418 675.45436134 347.21934509 675.45294189 C345.22447975 675.45552591 343.22961492 675.45853917 341.23475081 675.4619453 C335.74768234 675.47001491 330.26062695 675.47180486 324.77355325 675.47254276 C318.8570428 675.47439349 312.94053913 675.48194114 307.02403259 675.48867798 C293.40615112 675.50297229 279.78827065 675.50878898 266.17038323 675.51336992 C259.43506998 675.51570751 252.69975759 675.51931044 245.964445 675.5230653 C222.89152207 675.53590296 199.81859961 675.54661979 176.74567318 675.5500679 C175.29742516 675.55028953 173.84917714 675.55051132 172.40092913 675.55073325 C170.94924077 675.55095389 169.49755241 675.55117437 168.04586405 675.5513947 C165.13368475 675.55183724 162.22150546 675.55228436 159.30932617 675.55273438 C158.58727588 675.55284377 157.86522559 675.55295316 157.12129499 675.55306586 C133.73628495 675.55669227 110.35130599 675.57259545 86.96630785 675.59592474 C62.22148772 675.62056525 37.47668534 675.63424279 12.73185259 675.63543582 C10.01098382 675.63560726 7.29011506 675.63582268 4.56924629 675.63607025 C3.56437192 675.6361539 3.56437192 675.6361539 2.53919706 675.63623925 C-7.54316216 675.63731546 -17.62549247 675.64659462 -27.70784187 675.66025543 C-39.19259911 675.67570006 -50.67730313 675.68075138 -62.16206879 675.67251733 C-68.01574742 675.66862565 -73.86931903 675.66946745 -79.72298431 675.68357468 C-85.09568369 675.69640352 -90.46819662 675.69503805 -95.84089606 675.68298396 C-97.77109283 675.68104235 -99.70130323 675.68403314 -101.63148094 675.69282833 C-140.09186815 675.85679739 -177.29823953 665.45715722 -207.75 641.3125 C-208.32556641 640.85649414 -208.90113281 640.40048828 -209.49414062 639.93066406 C-228.63967066 624.553025 -243.23124006 605.94773607 -254.75 584.3125 C-255.63945312 582.6728125 -255.63945312 582.6728125 -256.546875 581 C-265.60564838 563.68411461 -270.79451979 545.39076361 -274.75 526.3125 C-275.04583984 524.92949707 -275.04583984 524.92949707 -275.34765625 523.51855469 C-277.07961703 514.51545144 -277.14786705 505.57219435 -277.125 496.4375 C-277.12445618 495.62024445 -277.12391235 494.80298889 -277.12335205 493.96096802 C-277.06483757 474.80356002 -273.86474886 457.63294916 -268.01953125 439.40234375 C-267.68501953 438.32073975 -267.68501953 438.32073975 -267.34375 437.21728516 C-266.87285832 435.70663676 -266.37308345 434.2049963 -265.86328125 432.70703125 C-265.68818859 429.00593473 -267.44427211 426.24737828 -269.125 423.0625 C-281.80496834 397.54177172 -289.44887884 369.29534271 -294.22998047 341.30517578 C-294.69279367 338.64171842 -295.2004126 335.99210698 -295.72265625 333.33984375 C-300.43073897 307.72356981 -298.86249317 279.87377219 -294.75 254.3125 C-294.46837347 252.40630559 -294.18712446 250.50005537 -293.90625 248.59375 C-286.68931956 201.82133848 -268.00862359 157.23547271 -239.75 119.3125 C-239.25081055 118.6421875 -238.75162109 117.971875 -238.23730469 117.28125 C-231.89577206 108.84316432 -225.09594179 100.89816516 -217.75 93.3125 C-216.51032471 92.03197754 -216.51032471 92.03197754 -215.24560547 90.72558594 C-204.32820995 79.48785495 -193.48346879 68.51345809 -180.75 59.3125 C-179.82316406 58.590625 -178.89632812 57.86875 -177.94140625 57.125 C-137.79677491 25.94470382 -91.95685267 8.71368615 -41.75 2.3125 C-41.07233582 2.22422943 -40.39467163 2.13595886 -39.69647217 2.04501343 C-26.45146122 0.35604609 -13.34331712 -0.05001808 0 0 Z M88.25 228.3125 C87.45416504 228.48410645 86.65833008 228.65571289 85.83837891 228.83251953 C32.41925585 240.77577602 -13.3647595 275.07645368 -42.54760742 321.04858398 C-46.92328269 328.21247563 -50.34160634 335.74430861 -53.48193359 343.52539062 C-55.75814501 348.94339979 -57.8532555 351.99556196 -62.75 355.3125 C-65.64437253 356.27729084 -67.22041421 356.39397024 -70.2043457 356.28320312 C-71.56190224 356.24012024 -71.56190224 356.24012024 -72.94688416 356.19616699 C-73.9299202 356.16236938 -74.91295624 356.12857178 -75.92578125 356.09375 C-101.05317795 355.44685259 -122.26256592 355.78974499 -145.75 365.3125 C-147.64321178 366.00718658 -149.53894883 366.69504137 -151.4375 367.375 C-185.49892521 379.87431818 -211.70527992 403.90440196 -227.83349609 436.50244141 C-244.17200929 471.82873879 -244.97992881 510.30667252 -231.86669922 546.76855469 C-225.10850189 564.83676174 -215.11502719 580.58406106 -202.75 595.3125 C-202.02425781 596.20324219 -201.29851562 597.09398437 -200.55078125 598.01171875 C-179.52167356 622.77242411 -145.62856776 636.61913281 -113.75 639.3125 C-99.7673034 640.12618432 -85.70776574 639.85912652 -71.70835042 639.82073963 C-66.00825582 639.80952941 -60.30820055 639.82160521 -54.60810852 639.83058167 C-43.47214934 639.84444725 -32.33630427 639.83700809 -21.20035061 639.82190608 C-8.21143945 639.80496756 4.7774439 639.808266 17.7663627 639.81200016 C41.64995619 639.81804315 65.53348979 639.80232417 89.4170679 639.77681253 C111.17861764 639.75369066 132.9401009 639.74831529 154.70166016 639.75854492 C160.27816134 639.76114735 165.85466252 639.76373249 171.43116379 639.76614285 C172.11789306 639.76644029 172.80462234 639.76673774 173.51216159 639.7670442 C191.74853744 639.77467268 209.98490676 639.76817576 228.22128034 639.75744683 C230.83737262 639.75592111 233.4534649 639.75440075 236.06955719 639.75288582 C237.35646666 639.752128 238.64337613 639.75137019 239.96928285 639.75058941 C249.00860771 639.74586021 258.04791751 639.74768824 267.08724213 639.75195122 C278.1101593 639.75689275 289.13300792 639.75082707 300.15590945 639.73105692 C305.77249503 639.72122919 311.38897653 639.71603074 317.00556755 639.72394943 C322.15853385 639.73106554 327.31129122 639.72406471 332.46423021 639.7063458 C334.31648904 639.7023395 336.16876729 639.70323591 338.02101859 639.70986467 C374.95684583 639.83061557 407.57250717 629.34129999 434.25 603.3125 C434.89195312 602.73242188 435.53390625 602.15234375 436.1953125 601.5546875 C455.14937625 584.01115873 466.89939194 554.90004234 468.48779297 529.51171875 C468.62514348 525.44252105 468.68932084 521.38360279 468.6875 517.3125 C468.68823517 516.59216583 468.68897034 515.87183167 468.68972778 515.12966919 C468.63950712 496.30680771 464.60124795 480.127597 456.25 463.3125 C455.78980469 462.343125 455.32960938 461.37375 454.85546875 460.375 C441.11286962 433.12742594 413.81639444 411.97495658 385.1484375 402.47265625 C383.85086538 402.07958618 382.55121128 401.69334996 381.25 401.3125 C380.10966309 400.97774658 380.10966309 400.97774658 378.94628906 400.63623047 C367.79812187 397.46457911 357.24914054 395.66416049 345.62109375 395.94042969 C339.88033136 395.94257496 336.71879985 395.03283109 332.59521484 390.93286133 C328.04806172 385.45564621 327.12470628 377.93374457 325.875 371.125 C320.1610959 341.29901893 302.85081842 313.0484847 283.25 290.3125 C282.76354004 289.7448291 282.27708008 289.1771582 281.77587891 288.59228516 C275.53315476 281.3655713 268.85599923 275.09385274 261.25 269.3125 C260.4149292 268.66498779 260.4149292 268.66498779 259.56298828 268.00439453 C250.2718028 260.81591073 240.69210498 254.69010408 230.25 249.3125 C229.05479736 248.69544189 229.05479736 248.69544189 227.83544922 248.06591797 C208.1564397 238.03057379 187.93334932 231.46355213 166.25 227.3125 C165.32243896 227.12486084 164.39487793 226.93722168 163.43920898 226.74389648 C153.10275547 224.8767037 142.77925822 224.95888188 132.3125 225 C130.87777344 225.00273422 130.87777344 225.00273422 129.4140625 225.00552368 C115.52009904 225.05019366 101.87562478 225.32506355 88.25 228.3125 Z " fill="#171717" transform="translate(468.75,423.6875)"/>
<path d="M0 0 C0.95648437 0.68320312 1.91296875 1.36640625 2.8984375 2.0703125 C23.5374644 17.18393062 43.08368158 35.15385719 58 56 C59.00123243 57.36854055 60.00253816 58.73702746 61.00390625 60.10546875 C77.23113448 82.48750185 89.62305707 106.60083125 98 133 C93.82601231 131.74780369 90.10450854 130.10147086 86.24267578 128.13183594 C59.30677183 114.53779602 26.77601794 104.67328677 -3.4921875 104.69921875 C-4.64002716 104.69493362 -5.78786682 104.6906485 -6.9704895 104.68623352 C-9.38559312 104.68053149 -11.80071391 104.67995918 -14.21582031 104.68432617 C-17.83169401 104.68746244 -21.44672838 104.66405522 -25.0625 104.63867188 C-43.8122056 104.58656642 -62.55056068 105.61120053 -80.6875 110.75 C-81.62625977 111.00676514 -82.56501953 111.26353027 -83.53222656 111.52807617 C-115.3800148 120.43870356 -143.36283881 135.06266876 -169 156 C-169.64662598 156.52561523 -170.29325195 157.05123047 -170.95947266 157.59277344 C-185.4366571 169.46530673 -197.81869715 183.01220569 -209 198 C-209.4223291 198.56009766 -209.8446582 199.12019531 -210.27978516 199.69726562 C-217.28522546 209.03067591 -223.23437821 218.86433852 -229 229 C-230.33272912 231.33367896 -231.66640264 233.66681701 -233 236 C-233.98057373 235.97381592 -234.96114746 235.94763184 -235.97143555 235.9206543 C-262.07734984 235.15067926 -262.07734984 235.15067926 -287.53955078 240.22607422 C-290.17571496 241.05527053 -292.8282037 241.78364559 -295.49609375 242.50390625 C-333.8207959 253.11966882 -368.61871125 273.28467898 -392 306 C-392.33 306.66 -392.66 307.32 -393 308 C-393.66 308 -394.32 308 -395 308 C-400.01728262 295.58133593 -403.69973092 282.97275581 -407 270 C-407.309375 268.8346875 -407.61875 267.669375 -407.9375 266.46875 C-423.09833923 203.93028818 -409.48255932 134.53407412 -376.78271484 79.96875 C-365.17448611 61.16001474 -351.32823062 43.89559264 -336 28 C-335.43635742 27.41444336 -334.87271484 26.82888672 -334.29199219 26.22558594 C-326.91844431 18.60774602 -319.3912734 11.50532575 -311 5 C-310.04222656 4.22527344 -309.08445312 3.45054687 -308.09765625 2.65234375 C-275.98093422 -22.90333292 -238.37323477 -37.82437502 -198 -44 C-197.22172852 -44.12455566 -196.44345703 -44.24911133 -195.64160156 -44.37744141 C-129.06005917 -54.97209985 -54.95589566 -39.43521043 0 0 Z " fill="#FEBB03" transform="translate(620,508)"/>
<path d="M0 0 C4.64208036 2.67812328 7.51728395 5.67685186 9.25 10.875 C10.14025959 18.48196568 8.51121955 23.70417089 4.875 30.3125 C4.42600342 31.167229 3.97700684 32.02195801 3.5144043 32.90258789 C2.57646374 34.68318771 1.62967316 36.45915239 0.67431641 38.23046875 C-0.70356042 40.78877554 -2.05378709 43.35957122 -3.39453125 45.9375 C-5.06010009 49.13809824 -6.74218499 52.32886408 -8.44140625 55.51171875 C-9.88752428 58.22444897 -11.29414258 60.94929551 -12.65234375 63.70703125 C-17.8592898 74.03827341 -23.74136082 80.02611487 -34.75 83.875 C-43.01154854 86.18885476 -50.04719916 84.40085942 -57.75 80.875 C-65.47909183 76.03995909 -69.4458565 69.61523663 -71.75 60.875 C-73.05984759 52.30251531 -71.04313573 45.19226055 -66.5234375 37.89453125 C-61.17267181 30.95570408 -53.26198357 26.39271898 -46.11425781 21.50878906 C-42.13362985 18.75802881 -38.22608198 15.90743315 -34.3125 13.0625 C-24.06899013 5.65032511 -24.06899013 5.65032511 -19.8125 2.625 C-19.08160156 2.10421875 -18.35070312 1.5834375 -17.59765625 1.046875 C-12.19127831 -2.38211735 -5.88517371 -1.76555211 0 0 Z " fill="#171717" transform="translate(714.75,1231.125)"/>
<path d="M0 0 C3.75213438 1.85589443 6.32099649 4.56090261 8.16171265 8.30984497 C10.52166794 15.61324271 8.58887733 21.94015888 5.31112671 28.58206177 C4.80497833 29.55529388 4.29882996 30.528526 3.77734375 31.53125 C3.25886871 32.56353729 2.74039368 33.59582458 2.20620728 34.65939331 C1.11090531 36.83059555 0.00601042 38.99698224 -1.10791016 41.15869141 C-2.80198766 44.44811034 -4.46578681 47.7514746 -6.125 51.05859375 C-7.19747505 53.17536352 -8.2716386 55.29127883 -9.34765625 57.40625 C-9.84165924 58.38353058 -10.33566223 59.36081116 -10.84463501 60.3677063 C-15.70891319 69.77226317 -21.53209746 79.80319227 -31.94140625 83.828125 C-40.84431985 85.84446432 -49.37132842 85.01035713 -57.18359375 80.3359375 C-58.23546875 79.7378125 -59.28734375 79.1396875 -60.37109375 78.5234375 C-66.72482687 73.58164507 -70.66744889 68.33919396 -72.18359375 60.3359375 C-73.19963639 51.98180916 -72.18700313 45.23074559 -67.18359375 38.3359375 C-62.64275454 33.23994628 -57.56503681 29.18251475 -51.99609375 25.2734375 C-51.22797363 24.726875 -50.45985352 24.1803125 -49.66845703 23.6171875 C-47.17862699 21.84940316 -44.681487 20.09230582 -42.18359375 18.3359375 C-40.40357089 17.07692887 -38.62362376 15.81781315 -36.84375 14.55859375 C-35.08255809 13.3169607 -33.32085165 12.07605711 -31.55859375 10.8359375 C-30.74237549 10.26093506 -29.92615723 9.68593262 -29.08520508 9.09350586 C-26.79531312 7.49145128 -24.49318581 5.90942483 -22.18359375 4.3359375 C-21.47436768 3.84230713 -20.7651416 3.34867676 -20.03442383 2.84008789 C-13.61232603 -1.45172334 -7.53069087 -2.29019222 0 0 Z " fill="#171717" transform="translate(452.18359375,1124.6640625)"/>
<path d="M0 0 C4.14327184 2.25631664 6.69711307 5.08172615 8.8125 9.3125 C10.26951229 18.25325726 7.19601692 24.68100906 2.93359375 32.29052734 C1.30120803 35.23465159 -0.24489081 38.22219402 -1.79980469 41.20776367 C-3.06870502 43.63687856 -4.35342493 46.05710311 -5.640625 48.4765625 C-7.31806278 51.63925816 -8.95069511 54.81900577 -10.546875 58.0234375 C-16.69051801 70.25027271 -22.73638498 78.82879499 -36.1875 83.3125 C-45.97706305 84.22142442 -54.08578916 82.69138408 -62 76.6875 C-67.51329281 71.57825465 -70.77037326 64.03765697 -71.42578125 56.61328125 C-71.63279446 48.27827571 -70.45009469 42.24680536 -65.0625 35.75 C-64.11375 34.945625 -63.165 34.14125 -62.1875 33.3125 C-61.22457031 32.49265625 -61.22457031 32.49265625 -60.2421875 31.65625 C-53.60844821 26.16936055 -46.56645822 21.26971226 -39.51171875 16.34765625 C-36.76176268 14.42739144 -34.0349169 12.48204477 -31.33203125 10.49609375 C-10.56211391 -4.74614327 -10.56211391 -4.74614327 0 0 Z " fill="#171717" transform="translate(490.1875,1231.6875)"/>
<path d="M0 0 C3.91978472 2.20693761 5.9613285 5.53652406 8.234375 9.359375 C10.52579867 19.21249679 4.96886328 27.5263384 0.484375 35.859375 C-0.24758483 37.24096731 -0.97861651 38.62305173 -1.70874023 40.00561523 C-3.16239621 42.75139642 -4.62533791 45.49191053 -6.09619141 48.22851562 C-7.89342028 51.57527402 -9.65265916 54.9406023 -11.40234375 58.3125 C-12.33446766 60.07890141 -13.26794079 61.84459189 -14.203125 63.609375 C-14.60644043 64.39223877 -15.00975586 65.17510254 -15.42529297 65.98168945 C-19.80000056 74.06132305 -25.52848066 78.51065534 -34.2421875 81.3515625 C-41.60352955 83.11749092 -48.21885806 82.83857048 -55.0078125 79.37109375 C-62.4110107 74.77460256 -67.06643544 69.56375437 -69.71875 61.23046875 C-71.16527495 53.74336278 -71.29384529 45.54623462 -67.50390625 38.79296875 C-59.80466984 28.9317691 -48.68298997 21.92449475 -38.42919922 15.01269531 C-32.42317802 10.95782647 -26.554111 6.75398112 -20.77246094 2.38525391 C-13.99487872 -2.68738473 -7.80758137 -3.20776599 0 0 Z " fill="#171717" transform="translate(791.140625,1125.953125)"/>
<path d="M0 0 C4.37340219 1.86274538 6.76949865 4.51176139 9.375 8.4375 C11.1614394 13.7968182 10.95376476 17.97466677 8.91064453 23.13867188 C8.25053463 24.4029258 7.57375973 25.65858218 6.8828125 26.90625 C6.14267354 28.31073392 5.40344312 29.71569693 4.66503906 31.12109375 C4.28400024 31.83442871 3.90296143 32.54776367 3.51037598 33.28271484 C1.69739679 36.72349634 0.0062952 40.22196329 -1.6953125 43.71875 C-2.37021268 45.08897599 -3.04599414 46.45876825 -3.72265625 47.828125 C-4.74477159 49.89700872 -5.76435338 51.96693092 -6.77587891 54.04101562 C-13.33146061 67.4707447 -18.64833811 77.20089365 -33.1875 82.8125 C-41.31466378 84.29016614 -47.44799193 83.76406515 -54.625 79.4375 C-61.89096683 74.23280035 -66.41602433 68.38419705 -68.30859375 59.53515625 C-69.57815385 51.11844302 -68.60504762 43.52678757 -63.515625 36.54296875 C-60.32997873 32.87024891 -56.53156719 30.20532807 -52.5625 27.4375 C-51.78318115 26.88497559 -51.0038623 26.33245117 -50.20092773 25.76318359 C-48.5399913 24.58794449 -46.87625672 23.41665145 -45.20996094 22.24902344 C-42.59498468 20.41646546 -39.98838569 18.57245946 -37.3828125 16.7265625 C-33.20058576 13.76993826 -28.99937663 10.84228577 -24.78369141 7.93359375 C-22.9117837 6.63625712 -21.05425381 5.32124041 -19.19921875 4 C-12.06492902 -0.89433984 -8.52168397 -1.32233027 0 0 Z " fill="#171717" transform="translate(677.625,1124.5625)"/>
<path d="M0 0 C4.38063591 3.9532568 7.27501397 7.15635474 8.0625 13.0625 C7.95964718 19.54222759 4.71952689 24.73049314 1.67919922 30.26708984 C0.08081966 33.19477326 -1.45600895 36.15370376 -2.99902344 39.11083984 C-4.26369071 41.52614702 -5.54337876 43.93308075 -6.82421875 46.33984375 C-8.60733275 49.70409659 -10.33136991 53.09106548 -12.01953125 56.50390625 C-12.44580811 57.35122314 -12.87208496 58.19854004 -13.3112793 59.0715332 C-14.11734702 60.67627642 -14.91027184 62.28772323 -15.68676758 63.90698242 C-19.40920888 71.24202775 -24.94623444 77.03466933 -32.875 79.75 C-41.35710402 82.46427329 -48.30591264 81.87006947 -56.4375 78.3125 C-63.38092755 74.63656777 -67.78418152 68.94566476 -70.3125 61.5625 C-72.37785424 53.5113287 -72.86034197 44.97843309 -68.85522461 37.47143555 C-64.39944406 30.68609589 -56.52141079 26.08354651 -49.9375 21.5625 C-49.07108887 20.96195801 -48.20467773 20.36141602 -47.31201172 19.74267578 C-44.69058413 17.9276195 -42.06449001 16.11949313 -39.4375 14.3125 C-37.8878673 13.2424098 -36.33837979 12.17210932 -34.7890625 11.1015625 C-31.56331242 8.87605626 -28.33749637 6.65073136 -25.09863281 4.44433594 C-23.45549706 3.32476255 -21.81755741 2.19757548 -20.1796875 1.0703125 C-14.09511422 -2.83005499 -6.46207922 -3.17229344 0 0 Z " fill="#171717" transform="translate(604.4375,1233.6875)"/>
<path d="M0 0 C4.47260676 1.99669945 7.10339889 4.60082424 9.2890625 9.046875 C11.20975873 14.32351298 10.80000525 18.08635109 8.625 23.2890625 C6.95479072 26.74503302 5.13592806 30.11938298 3.31835938 33.49951172 C1.31992219 37.28988091 -0.55740463 41.13825539 -2.44921875 44.98266602 C-4.9289688 50.00736105 -7.45713616 55.00699947 -10 60 C-10.39251953 60.7734375 -10.78503906 61.546875 -11.18945312 62.34375 C-14.99137423 69.74059106 -18.50721297 75.90046283 -26 80 C-27.010625 80.61875 -28.02125 81.2375 -29.0625 81.875 C-35.60778909 84.3727425 -44.06472828 84.18229499 -50.69140625 82.19140625 C-57.58909219 78.72456932 -63.6900703 72.42856646 -67 65.4375 C-68.27233674 61.34784619 -68.30555626 57.12698235 -68.375 52.875 C-68.38917969 52.1936499 -68.40335937 51.5122998 -68.41796875 50.81030273 C-68.35361624 44.20210428 -66.27786786 40.15538848 -61.80078125 35.4765625 C-58.19130636 32.03059616 -54.30914479 29.17308258 -50.1875 26.375 C-48.69066017 25.33961944 -47.19459317 24.30312089 -45.69921875 23.265625 C-44.93013184 22.73388672 -44.16104492 22.20214844 -43.36865234 21.65429688 C-38.63972169 18.35155166 -33.98798594 14.94070097 -29.32885742 11.54052734 C-11.93536175 -1.09355409 -11.93536175 -1.09355409 0 0 Z " fill="#171717" transform="translate(564,1124)"/>
<path d="M0 0 C4.95170091 2.84264311 8.55208681 6.46876044 10.375 11.9375 C11.40194785 21.17190889 9.37280537 27.70123525 5.25 35.875 C4.45106323 37.53088135 4.45106323 37.53088135 3.63598633 39.22021484 C2.20111707 42.18631742 0.74689354 45.14189417 -0.71588135 48.09429932 C-2.57080376 51.85507822 -4.38734824 55.63449049 -6.20936584 59.4112854 C-6.66151711 60.34851944 -6.66151711 60.34851944 -7.12280273 61.3046875 C-7.42274139 61.92649902 -7.72268005 62.54831055 -8.03170776 63.18896484 C-8.93186113 65.0508366 -9.83655987 66.91043595 -10.74243164 68.76953125 C-14.43932764 76.37990384 -17.93284356 84.02481298 -21.09765625 91.87109375 C-23.32872999 96.35035945 -26.08722458 99.78416843 -30.125 102.8125 C-36.62997407 104.90338452 -43.62002593 104.90338452 -50.125 102.8125 C-54.04615971 99.87163022 -58.15827267 96.05071224 -58.91601562 90.99633789 C-59.29672564 83.07160082 -56.59923038 77.37063361 -53.125 70.375 C-52.54233092 69.16715773 -51.96140004 67.95847562 -51.38208008 66.74902344 C-50.1404148 64.16611322 -48.88678964 61.58950871 -47.62353516 59.01708984 C-45.55320712 54.79955664 -43.5156589 50.56660488 -41.48046875 46.33203125 C-38.19325223 39.50410828 -34.90045319 32.67912406 -31.55224609 25.88085938 C-30.19657246 23.12493869 -28.87871164 20.35389657 -27.57666016 17.57226562 C-26.8911454 16.13662568 -26.20544113 14.70107621 -25.51953125 13.265625 C-25.21794601 12.60520203 -24.91636078 11.94477905 -24.6056366 11.26434326 C-21.99357273 5.86222422 -18.66144642 3.0630125 -13.75 -0.375 C-8.93153244 -1.93391598 -4.73656367 -1.38830314 0 0 Z " fill="#171717" transform="translate(670.625,306.0625)"/>
<path d="M0 0 C4.61499063 2.41227184 8.57301977 5.4852678 12.62109375 8.73828125 C14.20686925 9.99239237 15.79281159 11.24629255 17.37890625 12.5 C18.18360352 13.1398584 18.98830078 13.7797168 19.81738281 14.43896484 C23.68763017 17.50543948 27.59329296 20.52593253 31.49609375 23.55078125 C37.42994733 28.16167103 43.35286318 32.78605132 49.24633789 37.44848633 C52.10118272 39.70178205 54.97614715 41.91928588 57.89453125 44.08984375 C58.48838623 44.53489258 59.08224121 44.97994141 59.6940918 45.43847656 C61.32493306 46.65708693 62.96300201 47.86600769 64.6015625 49.07421875 C68.21178371 52.1991665 70.5652238 55.59719157 71.24609375 60.36328125 C71.60912965 65.99033768 71.49199392 69.54678423 68.24609375 74.36328125 C63.55341784 79.10033234 59.92008043 81.48117077 53.12109375 81.80078125 C52.23164063 81.86136719 51.3421875 81.92195313 50.42578125 81.984375 C42.56804127 80.44950933 35.83952131 73.61226836 29.68359375 68.73828125 C23.895869 64.19571959 18.08136322 59.6996294 12.18359375 55.30078125 C-23.73213246 28.45037641 -23.73213246 28.45037641 -25.75390625 20.36328125 C-26.52877682 14.81842822 -25.99580952 10.06997714 -23.20703125 5.16015625 C-17.33421236 -2.10193162 -8.23773138 -3.85208931 0 0 Z " fill="#171717" transform="translate(143.75390625,421.63671875)"/>
<path d="M0 0 C4.14979464 2.08778488 6.84524466 4.17775954 8.421875 8.66015625 C8.81873553 11.18777985 8.95740882 13.6284802 9 16.1875 C9.02578125 17.11433594 9.0515625 18.04117187 9.078125 18.99609375 C8.16956329 26.62152241 1.31096351 31.19746351 -4.25 35.75 C-6.93506934 37.7441343 -9.64335196 39.6881735 -12.38330078 41.60522461 C-17.65237706 45.29413514 -22.80187533 49.12786669 -27.9375 53 C-34.78814332 58.15850225 -41.65782663 63.28898949 -48.5625 68.375 C-49.33231201 68.94250977 -50.10212402 69.51001953 -50.89526367 70.09472656 C-53.01035797 71.65083997 -55.12978836 73.2008702 -57.25 74.75 C-58.23492432 75.47848145 -58.23492432 75.47848145 -59.23974609 76.22167969 C-64.89408901 80.35626072 -69.32343602 81.73630685 -76.25 80.75 C-81.87306727 78.46131297 -85.34124297 75.10211293 -88.25 69.75 C-89.93607441 64.69177676 -89.87183554 59.78132942 -88.3125 54.6875 C-81.51432972 45.00525748 -70.25538554 38.47737121 -60.79931641 31.60546875 C-56.70852349 28.62806728 -52.63548304 25.62669388 -48.5625 22.625 C-47.38844604 21.76152954 -47.38844604 21.76152954 -46.19067383 20.88061523 C-42.37117077 18.06793843 -38.56432073 15.24043833 -34.78125 12.37890625 C-34.06928467 11.84088379 -33.35731934 11.30286133 -32.6237793 10.74853516 C-31.30521327 9.74996697 -29.98875716 8.74860269 -28.67504883 7.74365234 C-11.3336639 -5.39383129 -11.3336639 -5.39383129 0 0 Z " fill="#171717" transform="translate(824.25,422.25)"/>
<path d="M0 0 C6.42926261 2.80967775 10.1822237 6.66000332 13 13 C14.17896471 16.60374488 14.14009665 20.05393606 14.16113281 23.82885742 C14.16858017 24.84680389 14.16858017 24.84680389 14.17617798 25.88531494 C14.19075391 28.12537665 14.19759524 30.36536745 14.203125 32.60546875 C14.20888182 34.17002869 14.21463948 35.73458863 14.22039795 37.29914856 C14.23089608 40.58005093 14.23674598 43.8609289 14.24023438 47.1418457 C14.24570545 51.32681206 14.26970855 55.51145084 14.29820633 59.69631481 C14.31692086 62.92986462 14.32204305 66.16333705 14.32357025 69.39693642 C14.32657932 70.93856909 14.33454821 72.48020098 14.34775543 74.02178001 C14.50572657 93.88421036 14.50572657 93.88421036 8.125 100.9375 C7.65320313 101.48277344 7.18140625 102.02804687 6.6953125 102.58984375 C2.14159209 106.3776158 -2.75071042 106.37874794 -8.41796875 106.2421875 C-14.14793896 105.7047319 -17.01010964 102.16293919 -20.66796875 98.109375 C-23.86336051 93.04922382 -24.25497629 87.49542621 -24.29052734 81.64697266 C-24.29724457 80.94839645 -24.30396179 80.24982025 -24.31088257 79.53007507 C-24.32974054 77.24133008 -24.33378034 74.95288015 -24.3359375 72.6640625 C-24.34237336 71.05894861 -24.34910229 69.45383587 -24.35610962 67.84872437 C-24.36805147 64.49156985 -24.37179359 61.13451799 -24.37060547 57.77734375 C-24.37040233 53.49480597 -24.397713 49.21293212 -24.43214989 44.93055153 C-24.45448498 41.61720814 -24.45844102 38.30402296 -24.45738602 34.99061203 C-24.4597317 33.41269008 -24.46849652 31.83476308 -24.48405075 30.25691605 C-24.64690296 12.03312429 -24.64690296 12.03312429 -18.55258179 5.43228149 C-12.81478459 0.37005 -7.52717487 -1.24534518 0 0 Z " fill="#171717" transform="translate(480,271)"/>
<path d="M0 0 C0.70032852 0.15777924 1.40065704 0.31555847 2.12220764 0.4781189 C4.41243827 0.99689296 6.6994145 1.52857558 8.98632812 2.06176758 C10.59232977 2.43127043 12.19841028 2.8004307 13.80456543 3.16926575 C17.16135928 3.94251658 20.51645229 4.72270188 23.87060547 5.50732422 C28.15040889 6.50747302 32.43485342 7.48588327 36.72097015 8.45856762 C40.03669778 9.21436332 43.34912133 9.98391586 46.66078186 10.7573185 C48.23840317 11.12360566 49.81712294 11.48519708 51.3969574 11.84181786 C71.51797945 16.39940885 71.51797945 16.39940885 77.51757812 25.51879883 C79.31731098 30.9179974 79.21870439 36.45437148 77.39257812 41.83129883 C74.32648296 46.22603523 70.49740593 49.42392914 65.51757812 51.51879883 C57.81187874 52.58559311 50.4825542 50.57414615 43.08007812 48.64379883 C40.53649588 48.00025206 37.9923943 47.35928007 35.44726562 46.72192383 C34.41955299 46.46298843 34.41955299 46.46298843 33.37107849 46.19882202 C27.38127646 44.70245758 21.36412555 43.34419431 15.33789062 42.00317383 C13.39569493 41.56706701 11.45355635 41.13070579 9.51147461 40.6940918 C6.62429279 40.0451299 3.73652727 39.40064375 0.84500122 38.77130127 C-1.87810247 38.17749613 -4.59636384 37.56478017 -7.31445312 36.94848633 C-8.12175873 36.77774597 -8.92906433 36.60700562 -9.76083374 36.43109131 C-16.74458335 34.8166449 -22.4543484 32.11889302 -26.91992188 26.39379883 C-29.37223394 21.88154462 -29.90164478 18.63331825 -29.48242188 13.51879883 C-27.50596719 7.3513077 -23.82611146 3.10192247 -18.48242188 -0.48120117 C-12.28207243 -2.54798432 -6.23901604 -1.42644919 0 0 Z " fill="#171717" transform="translate(66.482421875,594.481201171875)"/>
<path d="M0 0 C5.78355104 5.23273666 8.13412818 12.8067821 10.85546875 19.93359375 C11.25018875 20.95437515 11.64490875 21.97515656 12.05158997 23.02687073 C13.31048643 26.28674722 14.56148126 29.54959345 15.8125 32.8125 C16.63297406 34.93834002 17.45393375 37.06399268 18.27539062 39.18945312 C19.91602176 43.43857414 21.544864 47.69195595 23.16552734 51.94873047 C24.82850656 56.31426961 26.52560025 60.66454449 28.24462891 65.00830078 C29.07608223 67.14216071 29.90730813 69.27610927 30.73828125 71.41015625 C31.12960739 72.38053329 31.52093353 73.35091034 31.92411804 74.35069275 C34.11962071 80.04598636 35.59483095 85.24029764 34.625 91.375 C32.09259618 96.3460149 28.63638866 99.86930567 23.625 102.375 C17.77024289 102.86828755 12.43515719 103.23244288 7.0625 100.6875 C2.47255152 96.3329335 -0.24357853 91.94591094 -2.5546875 86.09375 C-2.84436905 85.37946838 -3.1340506 84.66518677 -3.43251038 83.92926025 C-4.38112154 81.58151259 -5.31635671 79.22873655 -6.25 76.875 C-6.90684332 75.23204074 -7.5638279 73.58913794 -8.22094727 71.94628906 C-9.93927321 67.6378607 -11.64182825 63.3233717 -13.33905029 59.0065918 C-14.36951393 56.3889361 -15.40524857 53.77341582 -16.44189453 51.15820312 C-18.10438548 46.95741106 -19.74790343 42.7496399 -21.3772583 38.53588867 C-21.99592616 36.9410717 -22.61935062 35.34809099 -23.2477417 33.75708008 C-30.32090287 15.80304484 -30.32090287 15.80304484 -27.1875 7.0625 C-20.72843475 -2.51473467 -10.15523929 -4.88955966 0 0 Z " fill="#171717" transform="translate(301.375,307.625)"/>
<path d="M0 0 C3.59374156 3.33822323 6.93111231 7.13062275 8 12 C8 18.91593258 5.64668361 24.81546497 1 30 C-4.48158298 33.67299222 -10.41690182 34.99508116 -16.8125 36.1875 C-18.91964261 36.59966636 -21.02637878 37.01391344 -23.1328125 37.4296875 C-24.34098633 37.66655273 -25.54916016 37.90341797 -26.79394531 38.14746094 C-31.76954037 39.1419763 -36.72308547 40.23584228 -41.6796875 41.3203125 C-44.55618945 41.9437004 -47.43298838 42.5656977 -50.30990601 43.18716431 C-52.21059553 43.60020694 -54.11038273 44.01742646 -56.00918579 44.4390564 C-82.92094745 50.40125169 -82.92094745 50.40125169 -91.5625 46.0625 C-96.32173534 42.50061985 -98.33935282 37.66108643 -99.375 31.921875 C-99.71648503 26.5008001 -98.09829031 22.30097693 -95 18 C-88.4976504 11.92207994 -79.19822179 10.90235068 -70.8125 9.1875 C-69.23187582 8.85298593 -67.65155791 8.51702174 -66.0715332 8.1796875 C-62.75778528 7.47391906 -59.44243915 6.77638807 -56.12597656 6.08349609 C-50.95767896 4.99827466 -45.80267297 3.85690994 -40.6484375 2.70703125 C-38.13957975 2.15067985 -35.63054442 1.59513762 -33.12142944 1.03994751 C-31.50971046 0.68240072 -29.89839492 0.32303007 -28.2875061 -0.03823853 C-26.03040837 -0.54300996 -23.77140874 -1.03823223 -21.51171875 -1.53125 C-20.22740967 -1.81548828 -18.94310059 -2.09972656 -17.61987305 -2.39257812 C-10.90733888 -3.51895467 -6.00212814 -3.38301768 0 0 Z " fill="#171717" transform="translate(130,767)"/>
<path d="M0 0 C3.95573935 3.53406155 6.18278945 7.02172275 6.984375 12.31640625 C7.22966765 18.84936722 6.70312478 23.2740237 2.5390625 28.375 C-1.79887126 32.6427785 -6.65413586 33.75188912 -12.5390625 34.72265625 C-13.2639537 34.84445755 -13.98884491 34.96625885 -14.73570251 35.0917511 C-16.38360863 35.36841642 -18.03199467 35.64223273 -19.68075562 35.91375732 C-22.71533654 36.41720576 -25.74701885 36.93611063 -28.77856445 37.45751953 C-34.64222837 38.46525464 -40.50817175 39.45884926 -46.37524414 40.4465332 C-48.8239228 40.85997202 -51.27216178 41.2760227 -53.7199707 41.69458008 C-57.30056933 42.3065404 -60.88251073 42.91000532 -64.46484375 43.51171875 C-65.55140762 43.6991716 -66.6379715 43.88662445 -67.75746155 44.07975769 C-84.60542924 46.88056989 -84.60542924 46.88056989 -92.4609375 41.375 C-96.88354933 37.08375288 -98.62869027 33.75009332 -98.7734375 27.625 C-98.71643347 22.32362485 -98.17191808 19.37895273 -94.4609375 15.375 C-93.6771875 14.488125 -92.8934375 13.60125 -92.0859375 12.6875 C-83.16851612 5.75340305 -65.20879426 5.7224143 -54.2109375 3.875 C-52.45177666 3.57709594 -50.69266185 3.27891995 -48.93359375 2.98046875 C-44.62271422 2.2498651 -40.31084308 1.52530648 -35.99868774 0.80227661 C-33.44989236 0.37314035 -30.90200727 -0.06109607 -28.35424805 -0.49633789 C-26.74268265 -0.7697345 -25.13111068 -1.04309235 -23.51953125 -1.31640625 C-22.78873352 -1.44233154 -22.05793579 -1.56825684 -21.30499268 -1.69799805 C-6.218158 -4.24367181 -6.218158 -4.24367181 0 0 Z " fill="#171717" transform="translate(897.4609375,597.625)"/>
<path d="M0 0 C4.00262312 0.91488528 5.61661144 2.52875206 7.75 5.875 C10.76422353 10.89234677 11.12860783 14.99227793 11.16113281 20.82885742 C11.16609772 21.5074884 11.17106262 22.18611938 11.17617798 22.88531494 C11.19075391 25.12537665 11.19759524 27.36536745 11.203125 29.60546875 C11.20888182 31.17002869 11.21463948 32.73458863 11.22039795 34.29914856 C11.23089608 37.58005093 11.23674598 40.8609289 11.24023438 44.1418457 C11.24570545 48.32681206 11.26970855 52.51145084 11.29820633 56.69631481 C11.31692086 59.92986462 11.32204305 63.16333705 11.32357025 66.39693642 C11.32657932 67.93856909 11.33454821 69.48020098 11.34775543 71.02178001 C11.43866743 82.45255965 11.12895408 91.431643 3 100 C2.34 99.67 1.68 99.34 1 99 C1.42152344 98.48050781 1.84304688 97.96101563 2.27734375 97.42578125 C2.82519531 96.72839844 3.37304688 96.03101563 3.9375 95.3125 C4.75541016 94.28576172 4.75541016 94.28576172 5.58984375 93.23828125 C8.4007138 88.77670635 8.13737708 83.91607048 8.17700195 78.76635742 C8.18357315 78.05671341 8.19014435 77.3470694 8.19691467 76.61592102 C8.21654464 74.27910233 8.22828633 71.94234755 8.23828125 69.60546875 C8.24235678 68.8036297 8.2464323 68.00179066 8.25063133 67.17565346 C8.27144687 62.93245328 8.28576877 58.68928502 8.29516602 54.44604492 C8.30622899 50.07819871 8.34064026 45.7108621 8.38033772 41.34319592 C8.40655494 37.97071931 8.41486228 34.59836337 8.41844749 31.22579384 C8.42329922 29.61633164 8.43487269 28.00687432 8.45348549 26.39751244 C8.55895738 16.67468024 8.62120024 9.13466694 1.75 1.5 C1.1725 1.005 0.595 0.51 0 0 Z " fill="#252525" transform="translate(483,274)"/>
<path d="M0 0 C0.33 0 0.66 0 1 0 C1.71803923 7.83432084 2.08972417 15.54988172 1.9375 23.41796875 C1.81650869 25.98754963 1.81650869 25.98754963 3 28 C3.07033769 29.87379605 3.0843022 31.75001102 3.0625 33.625 C3.05347656 34.62789062 3.04445312 35.63078125 3.03515625 36.6640625 C3.02355469 37.43492187 3.01195312 38.20578125 3 39 C2.01 38.67 1.02 38.34 0 38 C0 25.46 0 12.92 0 0 Z " fill="#212122" transform="translate(171,703)"/>
<path d="M0 0 C4.95 0 9.9 0 15 0 C14.67 0.99 14.34 1.98 14 3 C4.58997722 3.3690205 4.58997722 3.3690205 0 1 C0 0.67 0 0.34 0 0 Z " fill="#212122" transform="translate(627,1205)"/>
<path d="M0 0 C0.66 0.33 1.32 0.66 2 1 C-3.36000789 3.25684543 -7.1977825 4.36263859 -13 4 C-13.33 3.01 -13.66 2.02 -14 1 C-12.86111328 1.01740234 -12.86111328 1.01740234 -11.69921875 1.03515625 C-10.70535156 1.04417969 -9.71148438 1.05320312 -8.6875 1.0625 C-7.70136719 1.07410156 -6.71523438 1.08570313 -5.69921875 1.09765625 C-2.90036151 1.12329862 -2.90036151 1.12329862 0 0 Z " fill="#212121" transform="translate(682,1312)"/>
<path d="M0 0 C2.4375 1 2.4375 1 4 2 C0.83754459 3.0541518 -1.86948218 3.31275672 -5.1875 3.5625 C-6.81751953 3.68818359 -6.81751953 3.68818359 -8.48046875 3.81640625 C-9.72763672 3.90728516 -9.72763672 3.90728516 -11 4 C-10.34 3.67 -9.68 3.34 -9 3 C-9 2.34 -9 1.68 -9 1 C-5.97562661 -0.5121867 -3.33758466 -0.17263369 0 0 Z " fill="#1E1E1E" transform="translate(486,1230)"/>
<path d="M0 0 C0.33 0 0.66 0 1 0 C1.19397476 1.97854258 1.38001321 3.9578648 1.5625 5.9375 C1.66691406 7.03964844 1.77132812 8.14179687 1.87890625 9.27734375 C1.91886719 10.17582031 1.95882812 11.07429687 2 12 C1.67 12.33 1.34 12.66 1 13 C0.76572222 15.01594582 0.58663876 17.038474 0.4375 19.0625 C0.35371094 20.16722656 0.26992187 21.27195312 0.18359375 22.41015625 C0.12300781 23.26480469 0.06242188 24.11945312 0 25 C-0.33 25 -0.66 25 -1 25 C-1.02718316 22.14576808 -1.04692705 19.29179985 -1.0625 16.4375 C-1.07087891 15.63763672 -1.07925781 14.83777344 -1.08789062 14.01367188 C-1.10742247 9.22836896 -0.80437018 4.71854949 0 0 Z " fill="#FCDF00" transform="translate(209,689)"/>
<path d="M0 0 C0.66 0.33 1.32 0.66 2 1 C3.2935896 5.63536273 2.78949129 8.57890387 1 13 C0.34 12.67 -0.32 12.34 -1 12 C-1.02698189 10.37509046 -1.04638757 8.75005367 -1.0625 7.125 C-1.07410156 6.22007812 -1.08570313 5.31515625 -1.09765625 4.3828125 C-1 2 -1 2 0 0 Z " fill="#F3C402" transform="translate(211,675)"/>
<path d="M0 0 C3.96 0 7.92 0 12 0 C12 0.99 12 1.98 12 3 C8.04 3 4.08 3 0 3 C0 2.01 0 1.02 0 0 Z " fill="#222222" transform="translate(442,1312)"/>
<path d="M0 0 C0.66 0.33 1.32 0.66 2 1 C2.05399736 2.45792884 2.09279177 3.91642712 2.125 5.375 C2.14820313 6.18710937 2.17140625 6.99921875 2.1953125 7.8359375 C2 10 2 10 0 12 C-1.29449495 8.11651516 -1.13203312 5.09302664 -1 1 C-0.67 0.67 -0.34 0.34 0 0 Z " fill="#1E1E1E" transform="translate(32,792)"/>
<path d="M0 0 C0.33 0 0.66 0 1 0 C0.85805236 2.06277107 0.71127784 4.12521031 0.5625 6.1875 C0.48128906 7.33605469 0.40007812 8.48460937 0.31640625 9.66796875 C0.04596188 12.51598171 -0.37521747 15.21210482 -1 18 C-3 16 -3 16 -3.125 12.875 C-3.08375 11.92625 -3.0425 10.9775 -3 10 C-2.34 10 -1.68 10 -1 10 C-1.0309375 8.3603125 -1.0309375 8.3603125 -1.0625 6.6875 C-1 3 -1 3 0 0 Z " fill="#110E1B" transform="translate(210,672)"/>
<path d="M0 0 C5.28 0.66 10.56 1.32 16 2 C16 2.66 16 3.32 16 4 C10.39538469 3.57910004 5.27913453 3.08386889 0 1 C0 0.67 0 0.34 0 0 Z " fill="#111211" transform="translate(91,637)"/>
<path d="M0 0 C0.99 0.33 1.98 0.66 3 1 C4.28317892 4.84953676 4.06643637 7.94738135 4 12 C3.01 12.33 2.02 12.66 1 13 C1.020625 11.783125 1.04125 10.56625 1.0625 9.3125 C1.06824116 6.08022678 0.78766315 3.15065259 0 0 Z " fill="#F4F4F4" transform="translate(798,1133)"/>
<path d="M0 0 C5.19209404 -0.21192221 9.126739 0.4087311 14 2 C10.6853333 4.02907167 8.5684021 4.12742133 4.75 3.625 C3.85796875 3.51414062 2.9659375 3.40328125 2.046875 3.2890625 C1.37140625 3.19367188 0.6959375 3.09828125 0 3 C0 2.01 0 1.02 0 0 Z " fill="#201F20" transform="translate(778,1124)"/>
<path d="M0 0 C0.33 0.99 0.66 1.98 1 3 C-0.328125 5.12109375 -0.328125 5.12109375 -2.25 7.4375 C-2.87390625 8.19933594 -3.4978125 8.96117187 -4.140625 9.74609375 C-5.06101562 10.86177734 -5.06101562 10.86177734 -6 12 C-7.00760879 13.32759267 -8.01029325 14.65900845 -9 16 C-8.47515308 11.44299575 -6.68492697 8.807126 -3.9375 5.1875 C-3.20402344 4.21167969 -2.47054688 3.23585938 -1.71484375 2.23046875 C-1.14894531 1.49441406 -0.58304687 0.75835938 0 0 Z " fill="#0E0C1B" transform="translate(406,712)"/>
<path d="M0 0 C0.99 0.33 1.98 0.66 3 1 C4.1875 4.0625 4.1875 4.0625 5 7 C1.08788267 5.84414715 -1.8745041 4.64465038 -5 2 C-3.68 2 -2.36 2 -1 2 C-0.67 1.34 -0.34 0.68 0 0 Z " fill="#E6BF05" transform="translate(713,634)"/>
<path d="M0 0 C0 0.66 0 1.32 0 2 C-6.75 4.125 -6.75 4.125 -9 3 C-9 3.66 -9 4.32 -9 5 C-10.32 4.67 -11.64 4.34 -13 4 C-12.67 3.34 -12.34 2.68 -12 2 C-10.0390625 1.3671875 -10.0390625 1.3671875 -7.625 0.875 C-6.83351563 0.70742188 -6.04203125 0.53984375 -5.2265625 0.3671875 C-3 0 -3 0 0 0 Z " fill="#1D1D1D" transform="translate(68,775)"/>
<path d="M0 0 C0.33 0 0.66 0 1 0 C1 3.96 1 7.92 1 12 C0.01 11.67 -0.98 11.34 -2 11 C-2.05399736 9.54207116 -2.09279177 8.08357288 -2.125 6.625 C-2.15980469 5.40683594 -2.15980469 5.40683594 -2.1953125 4.1640625 C-2 2 -2 2 0 0 Z " fill="#232324" transform="translate(611,1171)"/>
<path d="M0 0 C0 0.33 0 0.66 0 1 C-2.31 1 -4.62 1 -7 1 C-7 1.66 -7 2.32 -7 3 C-9.97 3 -12.94 3 -16 3 C-11.82972023 -1.17027977 -5.53869904 -0.10860194 0 0 Z " fill="#100F10" transform="translate(121,765)"/>
<path d="M0 0 C0.99 0 1.98 0 3 0 C3 2.97 3 5.94 3 9 C2.01 9 1.02 9 0 9 C0 6.03 0 3.06 0 0 Z " fill="#202020" transform="translate(735,480)"/>
<path d="M0 0 C7.42857143 -0.28571429 7.42857143 -0.28571429 11 2 C8.24921116 2.91692961 6.64051087 3.10886083 3.8125 3.0625 C1.9253125 3.0315625 1.9253125 3.0315625 0 3 C0 2.01 0 1.02 0 0 Z " fill="#232323" transform="translate(116,764)"/>
<path d="M0 0 C0.66 0.33 1.32 0.66 2 1 C2 3.31 2 5.62 2 8 C1.01 7.67 0.02 7.34 -1 7 C-1.04254356 5.00045254 -1.04080783 2.99958364 -1 1 C-0.67 0.67 -0.34 0.34 0 0 Z " fill="#1F1E1F" transform="translate(420,1278)"/>
<path d="M0 0 C0.66 0 1.32 0 2 0 C2 0.66 2 1.32 2 2 C4.64 2.66 7.28 3.32 10 4 C10 4.33 10 4.66 10 5 C5.94393835 4.53199289 2.53411321 4.12046792 -1 2 C-0.67 1.34 -0.34 0.68 0 0 Z " fill="#EBE5CE" transform="translate(316,1051)"/>
<path d="M0 0 C2.72869407 0.03287583 5.2966618 0.56397771 8 1 C4.1496895 3.56687367 2.41430237 2.83288724 -2 2 C-1.34 1.34 -0.68 0.68 0 0 Z " fill="#252420" transform="translate(841,821)"/>
<path d="M0 0 C0 0.66 0 1.32 0 2 C-1.98 2.33 -3.96 2.66 -6 3 C-6 2.34 -6 1.68 -6 1 C-6.66 0.67 -7.32 0.34 -8 0 C-4.71303767 -0.79953138 -3.28976808 -1.09658936 0 0 Z " fill="#E6E7E6" transform="translate(107,805)"/>
<path d="M0 0 C0.66 0.33 1.32 0.66 2 1 C-0.97 3.475 -0.97 3.475 -4 6 C-4.33 5.01 -4.66 4.02 -5 3 C-2.625 1.4375 -2.625 1.4375 0 0 Z " fill="#1D1D1E" transform="translate(45,598)"/>
<path d="M0 0 C2.97 0.495 2.97 0.495 6 1 C6.33 2.32 6.66 3.64 7 5 C4.0625 4.1875 4.0625 4.1875 1 3 C0.67 2.01 0.34 1.02 0 0 Z " fill="#EEEEEE" transform="translate(572,440)"/>
</svg>
